<?xml version="1.0" encoding="UTF-8"?><svg xmlns="https://www.w3.org/2000/svg" width="36px" height="36px" fill="none" stroke-width="1.5" viewBox="0 0 24 24" color="#000000"><path stroke="#000000" stroke-width="1.5" stroke-linecap="round" stroke-linejoin="round" d="M4 6v6s0 3 7 3 7-3 7-3V6"></path><path stroke="#000000" stroke-width="1.5" stroke-linecap="round" stroke-linejoin="round" d="M11 3c7 0 7 3 7 3s0 3-7 3-7-3-7-3 0-3 7-3ZM11 21c-7 0-7-3-7-3v-6M17.306 17.113l.909-1.927a.312.312 0 0 1 .57 0l.91 1.927 2.032.311c.261.04.365.376.177.568l-1.471 1.5.347 2.118c.044.272-.229.48-.462.351l-1.818-1-1.818 1c-.233.129-.506-.079-.462-.351l.347-2.118-1.47-1.5c-.19-.192-.085-.528.176-.568l2.033-.31Z"></path></svg>