<?xml version="1.0" encoding="UTF-8"?><svg xmlns="https://www.w3.org/2000/svg" width="36px" height="36px" fill="none" stroke-width="1.5" viewBox="0 0 24 24" color="#000000"><path stroke="#000000" stroke-width="1.5" stroke-linecap="round" stroke-linejoin="round" d="M12 12a4 4 0 1 0 0-8 4 4 0 0 0 0 8Z"></path><path stroke="#000000" stroke-width="1.5" stroke-linejoin="round" d="M22 17.28a2.28 2.28 0 0 1-.662 1.606c-.976.984-1.923 2.01-2.936 2.958a.597.597 0 0 1-.823-.017l-2.918-2.94a2.281 2.281 0 0 1 0-3.214 2.277 2.277 0 0 1 3.233 0l.106.107.106-.107A2.277 2.277 0 0 1 22 17.28Z"></path><path stroke="#000000" stroke-width="1.5" stroke-linecap="round" stroke-linejoin="round" d="M5 20v-1a7 7 0 0 1 10-6.326"></path></svg>